<mxfile host="app.diagrams.net" modified="2023-07-04T01:44:24.771Z" agent="Mozilla/5.0 (Macintosh; Intel Mac OS X 10_15_7) AppleWebKit/537.36 (KHTML, like Gecko) Chrome/113.0.0.0 Safari/537.36 Edg/113.0.1774.57" version="21.5.2" etag="EX5PrC_glcIsdtJH8M3u" type="github">
  <diagram name="第 1 页" id="S-PuGA7qyLg50HLaOnjS">
    <mxGraphModel>
      <root>
        <mxCell id="0" />
        <mxCell id="1" parent="0" />
      </root>
    </mxGraphModel>
  </diagram>
</mxfile>
